<?xml version="1.0" encoding="utf-8"?>
<!-- Generator: Adobe Illustrator 16.0.0, SVG Export Plug-In . SVG Version: 6.00 Build 0)  -->
<!DOCTYPE svg PUBLIC "-//W3C//DTD SVG 1.1//EN" "http://www.w3.org/Graphics/SVG/1.1/DTD/svg11.dtd">
<svg version="1.1" id="Layer_1" xmlns="http://www.w3.org/2000/svg" xmlns:xlink="http://www.w3.org/1999/xlink" x="0px" y="0px"
	 width="261.708px" height="41.833px" viewBox="69.214 16.043 261.708 41.833"
	 enable-background="new 69.214 16.043 261.708 41.833" xml:space="preserve">
<g>
	<path id="path2383" fill="#FFFFFF" stroke="#FFFFFF" stroke-miterlimit="10" d="M83.22,37.886
		c3.492-4.941,2.399-12.198-0.586-14.291c-5.265-3.825-11.021,4.157-8.383,12.099c2.632,8.173,9.222,13.889,18.193,15.522
		c19.463,3.438,57.959-17.749,82.373-24.231c18.136-4.816,29.215,2.42,35.194,10.436c-12.287-8.704-23.484-5.677-35.009-3.54
		c-26.443,4.903-53.794,25.719-82.778,22.444c-13.531-2.021-23.012-15.458-22.232-25.994c0.069-0.936,0.22-1.85,0.456-2.731
		c1.781-6.244,4.911-8.804,7.683-9.564C85.666,15.972,93.132,29.708,83.22,37.886z"/>
	<path id="path2479" fill="#FFFFFF" stroke="#FFFFFF" stroke-miterlimit="10" d="M316.153,35.741
		c-3.703,4.983-2.545,12.301,0.621,14.412c5.585,3.856,11.688-4.192,8.891-12.201c-2.791-8.243-9.78-14.005-19.295-15.653
		c-20.643-3.467-61.473,17.898-87.366,24.435c-19.235,4.856-30.986-2.441-37.326-10.523c13.031,8.775,24.908,5.724,37.131,3.568
		c28.046-4.944,57.055-25.935,87.795-22.633c14.351,2.038,24.407,15.587,23.579,26.213c-0.073,0.943-0.232,1.864-0.482,2.753
		c-1.89,6.296-5.209,8.879-8.149,9.646C313.559,57.84,305.641,43.988,316.153,35.741z"/>
</g>
</svg>
